<svg xmlns="http://www.w3.org/2000/svg" width="2057" height="2057" viewBox="0 0 2057 2057"><g transform="translate(69 489)"><g transform="translate(-2102)"><g transform="translate(2932.94 410.94)" fill="none" stroke="#342637" stroke-width="1" opacity="0.102"><circle cx="128.56" cy="128.56" r="128.56" stroke="none"/><circle cx="128.56" cy="128.56" r="128.06" fill="none"/></g><g transform="translate(2804.38 282.37)" fill="none" stroke="#342637" stroke-width="1" opacity="0.122"><ellipse cx="257.12" cy="257.13" rx="257.12" ry="257.13" stroke="none"/><ellipse cx="257.12" cy="257.13" rx="256.62" ry="256.63" fill="none"/></g><g transform="translate(2675.81 153.81)" fill="none" stroke="#342637" stroke-width="1" opacity="0.141"><circle cx="385.69" cy="385.69" r="385.69" stroke="none"/><circle cx="385.69" cy="385.69" r="385.19" fill="none"/></g><g transform="translate(2482.97 -39.03)" fill="none" stroke="#342637" stroke-width="1" opacity="0.161"><circle cx="578.53" cy="578.53" r="578.53" stroke="none"/><circle cx="578.53" cy="578.53" r="578.03" fill="none"/></g><g transform="translate(2290.13 -231.87)" fill="none" stroke="#342637" stroke-width="1" opacity="0.2"><circle cx="771.37" cy="771.37" r="771.37" stroke="none"/><circle cx="771.37" cy="771.37" r="770.87" fill="none"/></g><g transform="translate(2033 -489)" fill="none" stroke="#342637" stroke-width="1" opacity="0.2"><circle cx="1028.5" cy="1028.5" r="1028.5" stroke="none"/><circle cx="1028.5" cy="1028.5" r="1028" fill="none"/></g></g><g transform="translate(-2102)"><circle cx="15" cy="15" r="15" transform="translate(3702 155)" fill="#502d55" opacity="0.2"/><circle cx="15" cy="15" r="15" transform="translate(2285 1000)" fill="#502d55" opacity="0.102"/><circle cx="37.5" cy="37.5" r="37.5" transform="translate(2514 336)" fill="#502d55" opacity="0.051"/><circle cx="10" cy="10" r="10" transform="translate(2917 943)" fill="#502d55" opacity="0.149"/><circle cx="17.5" cy="17.5" r="17.5" transform="translate(3308 693)" fill="#502d55" opacity="0.031"/><circle cx="7.5" cy="7.5" r="7.5" transform="translate(2773 780)" fill="#502d55" opacity="0.102"/><circle cx="32.5" cy="32.5" r="32.5" transform="translate(2985 41)" fill="#502d55" opacity="0.149"/></g></g></svg>