<svg xmlns="http://www.w3.org/2000/svg" width="2057" height="2057" viewBox="0 0 2057 2057"><g transform="translate(69 489)"><g transform="translate(830.94 410.94)" fill="none" stroke="#fff" stroke-width="1" opacity="0.102"><circle cx="128.56" cy="128.56" r="128.56" stroke="none"/><circle cx="128.56" cy="128.56" r="128.06" fill="none"/></g><g transform="translate(702.37 282.37)" fill="none" stroke="#fff" stroke-width="1" opacity="0.078"><circle cx="257.13" cy="257.13" r="257.13" stroke="none"/><circle cx="257.13" cy="257.13" r="256.63" fill="none"/></g><g transform="translate(573.81 153.81)" fill="none" stroke="#fff" stroke-width="1" opacity="0.071"><circle cx="385.69" cy="385.69" r="385.69" stroke="none"/><circle cx="385.69" cy="385.69" r="385.19" fill="none"/></g><g transform="translate(380.97 -39.03)" fill="none" stroke="#fff" stroke-width="1" opacity="0.059"><circle cx="578.53" cy="578.53" r="578.53" stroke="none"/><circle cx="578.53" cy="578.53" r="578.03" fill="none"/></g><g transform="translate(188.12 -231.87)" fill="none" stroke="#fff" stroke-width="1" opacity="0.039"><ellipse cx="771.38" cy="771.37" rx="771.38" ry="771.37" stroke="none"/><ellipse cx="771.38" cy="771.37" rx="770.88" ry="770.87" fill="none"/></g><g transform="translate(-69 -489)" fill="none" stroke="#fff" stroke-width="1" opacity="0.02"><circle cx="1028.5" cy="1028.5" r="1028.5" stroke="none"/><circle cx="1028.5" cy="1028.5" r="1028" fill="none"/></g><circle cx="15" cy="15" r="15" transform="translate(1612 155)" fill="#fff" opacity="0.102"/><circle cx="15" cy="15" r="15" transform="translate(158 994)" fill="#fff" opacity="0.102"/><circle cx="37.5" cy="37.5" r="37.5" transform="translate(422 336)" fill="#fff" opacity="0.051"/><circle cx="10" cy="10" r="10" transform="translate(815 925)" fill="#fff" opacity="0.149"/><circle cx="17.5" cy="17.5" r="17.5" transform="translate(1206 710)" fill="#fff" opacity="0.031"/><circle cx="7.5" cy="7.5" r="7.5" transform="translate(667 783)" fill="#fff" opacity="0.102"/><circle cx="32.5" cy="32.5" r="32.5" transform="translate(892 73)" fill="#fff" opacity="0.149"/></g></svg>